<?xml version="1.0" encoding="utf-8"?>
<!-- Svg Vector Icons : http://www.onlinewebfonts.com/icon -->
<!DOCTYPE svg PUBLIC "-//W3C//DTD SVG 1.1//EN" "http://www.w3.org/Graphics/SVG/1.1/DTD/svg11.dtd">
<svg version="1.1" xmlns="http://www.w3.org/2000/svg" xmlns:xlink="http://www.w3.org/1999/xlink" x="0px" y="0px" viewBox="0 0 1000 1000" enable-background="new 0 0 1000 1000" xml:space="preserve">
<metadata> Svg Vector Icons : http://www.onlinewebfonts.com/icon </metadata>
<g><path d="M702.3,772.6c-12.4,0-25.2-0.6-38.2-1.8c-103.3-9.6-212-56.8-306.1-133.1c-197.5-160-268.7-400.6-158.8-536.4C277.6,4.6,425.6-17.1,585.5,44.8c14.8,5.8,22.2,22.4,16.5,37.3c-5.8,14.9-22.4,22.2-37.3,16.5C431,46.8,305.2,62.2,244.1,137.6C154,248.7,221.5,453,394.3,593c85.3,69.1,183.1,111.9,275.2,120.4c87.8,7.8,159.4-16.1,201.6-68.1c65-80.3,47.6-218.4-43.4-343.5c-9.4-12.9-6.5-30.9,6.3-40.2c12.8-9.4,30.9-6.5,40.2,6.3c108.2,148.8,124.5,311.2,41.6,413.6C867.7,741,792.8,772.6,702.3,772.6z"/><path d="M665.6,990H89.3c-31.8,0-57.6-25.9-57.6-57.6v-90.5c0-23.7,12.4-53,29.4-69.6l123.4-119.9c11.4-11.1,29.7-10.8,40.7,0.6c11.1,11.4,10.8,29.7-0.6,40.7L101.3,813.7c-5.8,5.6-11.9,20.1-11.9,28.2v90.5h576.2c15.9,0,28.8,12.9,28.8,28.8S681.5,990,665.6,990z"/><path d="M579.1,298.5c-7.4,0-14.8-2.8-20.4-8.4c-11.2-11.2-11.2-29.5,0-40.7L789.2,18.9c11.2-11.2,29.5-11.2,40.7,0c11.2,11.2,11.2,29.5,0,40.7L599.5,290.1C593.9,295.7,586.5,298.5,579.1,298.5z"/></g>
</svg>